<svg width="98" height="86" fill="none" xmlns="http://www.w3.org/2000/svg"><path fill-rule="evenodd" clip-rule="evenodd" d="M.752 85.855h7.779V24.588L.752 22.876v62.979zm10.452 0h9.575V18.67l-9.575-2.418v69.602m12.9.001h12.068V11.648L24.104 8.076v77.779z" fill="#F5E019"/><path fill-rule="evenodd" clip-rule="evenodd" d="M51.912 72.639V17.624a55004.14 55004.14 0 0020.656 6.001l17.308 5.028v46.123c-5.448-.307-11.215-.633-17.308-.975-6.47-.362-13.343-.749-20.656-1.162zm45.324-52.53a56870.076 56870.076 0 00-24.675-8.558L51.912 4.385c-3.69-1.278-7.485-2.597-11.424-3.96v85.43h56.748V20.11" fill="url(#paint0_linear_2_62)"/><defs><linearGradient id="paint0_linear_2_62" x1="40.488" y1="43.14" x2="97.235" y2="43.14" gradientUnits="userSpaceOnUse"><stop stop-color="#F5E019"/><stop offset="1" stop-color="#F46E19"/></linearGradient></defs></svg>