<svg viewBox="0 0 248 134" xmlns="http://www.w3.org/2000/svg" xmlns:xlink="http://www.w3.org/1999/xlink"><style>:root&gt;svg{display:none}:root&gt;svg:target{display:block}</style><svg fill="none" viewBox="0 0 98 86" id="include--logo_no_text" xmlns="http://www.w3.org/2000/svg"><path fill-rule="evenodd" clip-rule="evenodd" d="M.752 85.855h7.779V24.588L.752 22.876v62.979zm10.452 0h9.575V18.67l-9.575-2.418v69.602m12.9.001h12.068V11.648L24.104 8.076v77.779z" fill="#F5E019"/><path fill-rule="evenodd" clip-rule="evenodd" d="M51.912 72.639V17.624a55004.14 55004.14 0 0020.656 6.001l17.308 5.028v46.123c-5.448-.307-11.215-.633-17.308-.975-6.47-.362-13.343-.749-20.656-1.162zm45.324-52.53a56870.076 56870.076 0 00-24.675-8.558L51.912 4.385c-3.69-1.278-7.485-2.597-11.424-3.96v85.43h56.748V20.11" fill="url(#apaint0_linear_2_62)"/><defs><linearGradient id="apaint0_linear_2_62" x1="40.488" y1="43.14" x2="97.235" y2="43.14" gradientUnits="userSpaceOnUse"><stop stop-color="#F5E019"/><stop offset="1" stop-color="#F46E19"/></linearGradient></defs></svg><svg fill="none" viewBox="0 0 248 43" id="include--logo_text_horisontal" xmlns="http://www.w3.org/2000/svg"><path d="M68.216 19.417h-4.157v7.079h4.157c2.647 0 4.879-.721 4.879-3.539 0-2.852-2.232-3.54-4.879-3.54zm-.241-4.534c5.808 0 10.377 1.854 10.377 8.074 0 6.219-4.57 8.075-10.377 8.075h-3.916v7.903h-5.155V14.883h9.07m19.963 24.052l-9.345-24.052h5.565l6.427 18.005 6.459-18.005h5.566l-9.38 24.052h-5.292m38.552-24.052v24.052h-5.154v-9.69h-10.79v9.69h-5.153V14.883h5.153v9.689h10.79v-9.69h5.154z" fill="#F47119"/><path d="M165.143 14.883v24.052h-2.887v-18.59l-8.623 12.92h-1.788l-8.624-12.92v18.59h-2.886V14.883h2.473l9.932 14.844 9.929-14.844h2.474m10.444 22.093c2.097 0 4.193-.859 5.636-2.405v-3.024c-1.168-.24-2.852-.48-4.192-.48-2.406 0-5.016.721-5.016 3.126 0 1.924 1.752 2.783 3.572 2.783zm9.657-.205c.411 0 .857-.104 1.271-.242v2.234a6.1 6.1 0 01-2.063.378c-1.34 0-2.541-.55-3.024-1.993-1.648 1.375-3.744 2.2-6.425 2.2-2.919 0-5.807-1.547-5.807-5.017 0-4.262 3.917-5.566 7.456-5.566 1.444 0 3.197.206 4.571.515v-.585c0-2.474-1.684-4.123-4.707-4.123-2.543 0-4.571.619-6.015 1.237v-2.68c1.306-.446 3.575-1.1 6.29-1.1 4.398 0 7.181 2.406 7.181 7.01v6.46c0 .997.549 1.272 1.272 1.272m9.344-14.741c2.2 0 4.295.583 5.841 1.409v2.61c-1.374-.893-3.677-1.546-5.67-1.546-1.786 0-3.675.585-3.675 2.2 0 3.573 10.479 2.062 10.479 8.006 0 3.435-3.23 4.639-6.804 4.639-2.336 0-4.843-.62-6.391-1.616v-2.68c1.684 1.133 4.193 1.752 6.255 1.752 2.336 0 4.19-.379 4.19-2.027 0-3.47-10.513-2.096-10.513-8.006 0-3.402 3.195-4.742 6.288-4.742m14.499-5.394v5.808h6.598v2.541h-6.598v8.521c0 2.508 1.134 3.266 3.54 3.266 1.305 0 2.542-.31 3.642-.758v2.543c-1.238.447-2.85.756-4.433.756-3.196 0-5.463-1.717-5.463-5.325v-9.003h-3.092v-2.541h3.092V17.32l2.714-.686zm17.524 7.937c-2.818 0-5.43 1.684-5.636 4.913h10.686c.242-1.752-.858-4.913-5.05-4.913zm-.172-2.543c6.357 0 8.693 5.188 7.661 9.862h-13.125c.342 3.47 3.47 4.913 6.804 4.913 2.028 0 4.02-.55 5.428-1.34v2.68c-1.511.79-3.676 1.204-5.842 1.204-4.878 0-9.14-2.784-9.14-8.66 0-5.772 4.296-8.659 8.214-8.659zm21.336.07v2.749c-3.231-.379-5.84 1.168-6.838 3.813v10.274h-2.748V22.443h2.474v2.92c1.306-2.166 4.226-3.506 7.112-3.264" fill="#1F2021"/><path fill-rule="evenodd" clip-rule="evenodd" d="M.212 42.804h3.875V12.279l-3.875-.854v31.379m5.207 0h4.772V9.331L5.419 8.127v34.677m6.429 0h6.012V5.832l-6.012-1.78v38.752" fill="#F5E019"/><path fill-rule="evenodd" clip-rule="evenodd" d="M25.701 36.22V8.809l10.292 2.99 8.624 2.506v22.979l-8.624-.485-10.292-.579zm22.583-26.172c-1.19-.415-2.412-.839-3.667-1.273L35.99 5.783c-3.218-1.116-6.642-2.306-10.288-3.57L20.011.24v42.564h28.273V10.048z" fill="url(#bpaint0_linear_2_64)"/><defs><linearGradient id="bpaint0_linear_2_64" x1="20.011" y1="21.521" x2="48.284" y2="21.521" gradientUnits="userSpaceOnUse"><stop stop-color="#F5E019"/><stop offset="1" stop-color="#F46E19"/></linearGradient></defs></svg><svg fill="none" viewBox="0 0 190 134" id="include--logo_text_vertical" xmlns="http://www.w3.org/2000/svg"><path d="M9.87 113.98H5.711v7.079h4.157c2.647 0 4.88-.722 4.88-3.539 0-2.852-2.233-3.54-4.88-3.54zm-.24-4.536c5.806 0 10.377 1.856 10.377 8.076 0 6.219-4.571 8.073-10.378 8.073H5.712v7.904H.559v-24.053h9.07m19.963 24.053l-9.345-24.053h5.565l6.427 18.005 6.458-18.005h5.567l-9.38 24.053h-5.292m38.551-24.053v24.053h-5.154v-9.69H52.2v9.69h-5.155v-24.053H52.2v9.691h10.79v-9.691h5.153z" fill="#F47119"/><path d="M106.797 109.444v24.053h-2.886v-18.589l-8.624 12.92H93.5l-8.625-12.92v18.589h-2.886v-24.053h2.475l9.93 14.845 9.929-14.845h2.474m10.446 22.095c2.094 0 4.19-.859 5.633-2.406v-3.024c-1.168-.241-2.851-.48-4.191-.48-2.405 0-5.017.722-5.017 3.126 0 1.925 1.752 2.784 3.575 2.784zm9.654-.207c.411 0 .858-.103 1.271-.24v2.233a6.08 6.08 0 01-2.061.378c-1.34 0-2.543-.55-3.023-1.992-1.651 1.373-3.747 2.2-6.427 2.2-2.92 0-5.806-1.548-5.806-5.018 0-4.261 3.916-5.566 7.456-5.566 1.444 0 3.196.205 4.569.516v-.586c0-2.473-1.683-4.122-4.707-4.122-2.542 0-4.569.617-6.013 1.236v-2.679c1.307-.447 3.573-1.101 6.288-1.101 4.399 0 7.181 2.406 7.181 7.01v6.46c0 .996.551 1.271 1.272 1.271m9.346-14.741c2.198 0 4.294.585 5.841 1.409v2.612c-1.376-.893-3.677-1.547-5.669-1.547-1.787 0-3.678.584-3.678 2.199 0 3.573 10.48 2.063 10.48 8.007 0 3.436-3.23 4.64-6.802 4.64-2.336 0-4.846-.62-6.391-1.616v-2.68c1.683 1.133 4.191 1.75 6.252 1.75 2.337 0 4.193-.377 4.193-2.025 0-3.472-10.514-2.096-10.514-8.007 0-3.401 3.194-4.742 6.288-4.742m14.5-5.395v5.808h6.596v2.543h-6.596v8.521c0 2.508 1.132 3.264 3.538 3.264 1.304 0 2.543-.308 3.642-.756v2.543c-1.236.446-2.851.754-4.434.754-3.193 0-5.461-1.716-5.461-5.325v-9.001h-3.093v-2.543h3.093v-5.12l2.715-.688m17.521 7.939c-2.817 0-5.428 1.682-5.635 4.913h10.686c.241-1.752-.858-4.913-5.051-4.913zm-.172-2.544c6.357 0 8.693 5.189 7.663 9.862h-13.126c.344 3.471 3.471 4.912 6.803 4.912 2.028 0 4.02-.548 5.431-1.338v2.68c-1.512.79-3.678 1.204-5.843 1.204-4.88 0-9.14-2.784-9.14-8.66 0-5.774 4.296-8.66 8.212-8.66m21.336.069v2.751c-3.229-.38-5.84 1.168-6.837 3.812v10.274h-2.747v-16.493h2.472v2.92c1.307-2.164 4.227-3.505 7.112-3.264z" fill="#1F2021"/><path fill-rule="evenodd" clip-rule="evenodd" d="M46.752 85.855h7.779V24.588l-7.779-1.712v62.979zm10.452 0h9.575V18.67l-9.575-2.418v69.602m12.9.001h12.068V11.648L70.104 8.076v77.779z" fill="#F5E019"/><path fill-rule="evenodd" clip-rule="evenodd" d="M97.912 72.639V17.624c7.313 2.127 14.187 4.123 20.656 6.001l17.308 5.028v46.123c-5.448-.307-11.215-.633-17.308-.975-6.469-.362-13.343-.749-20.656-1.162zm45.324-52.53a134253.48 134253.48 0 00-24.675-8.559c-6.462-2.24-13.336-4.627-20.649-7.165-3.69-1.278-7.485-2.597-11.424-3.96v85.43h56.748V20.11" fill="url(#cpaint0_linear_2_63)"/><defs><linearGradient id="cpaint0_linear_2_63" x1="86.488" y1="43.14" x2="143.235" y2="43.14" gradientUnits="userSpaceOnUse"><stop stop-color="#F5E019"/><stop offset="1" stop-color="#F46E19"/></linearGradient></defs></svg></svg>