<svg width="44" height="44" viewBox="0 0 44 44" fill="none"
  xmlns="http://www.w3.org/2000/svg">
  <path d="M27.3504 0C30.2984 0 31.7724 2.0064 31.7724 4.3054C31.7724 7.1764 29.2116 9.8318 25.8786 9.8318C23.0868 9.8318 21.4588 8.1818 21.5358 5.4538C21.5358 3.1592 23.474 0 27.3504 0ZM18.2798 44C15.9522 44 14.2472 42.5656 15.8752 36.2472L18.546 25.0448C19.0102 23.254 19.0872 22.5346 18.546 22.5346C17.8486 22.5346 14.8302 23.771 13.0416 24.992L11.88 23.056C17.5384 18.2468 24.0482 15.4286 26.8422 15.4286C29.1676 15.4286 29.5548 18.2292 28.3932 22.5346L25.333 34.309C24.7918 36.388 25.0228 37.1052 25.5662 37.1052C26.2636 37.1052 28.5516 36.2428 30.8 34.4498L32.12 36.2406C26.6156 41.844 20.603 44 18.2798 44Z" fill="#ce9127"/>
</svg>
