<?xml version="1.0" encoding="UTF-8"?>
<svg id="SVGDoc" width="14" height="11"
  xmlns="http://www.w3.org/2000/svg" version="1.1"
  xmlns:xlink="http://www.w3.org/1999/xlink"
  xmlns:avocode="https://avocode.com/" viewBox="0 0 14 11">
  <path d="M1.51958,5.97613h10.13077v0l-3.44032,3.30613c-0.25383,0.24442 -0.25372,0.64084 0,0.88526c0.25394,0.24442 0.66536,0.24442 0.9193,0l4.54994,-4.37709c0.25383,-0.2401 0.25383,-0.63739 0.00011,-0.88094l-4.55006,-4.37709c-0.12691,-0.12091 -0.2932,-0.18223 -0.45971,-0.18223c-0.16628,0 -0.33257,0.06132 -0.45959,0.18223c-0.25383,0.24528 -0.25372,0.64084 0,0.88526l3.44044,3.30872v0h-10.13088c-0.35889,0 -0.65014,0.27897 -0.64991,0.62443c0,0.34547 0.29102,0.6253 0.64991,0.6253z" fill="#ce9127" fill-opacity="1"></path>
</svg>