<?xml version="1.0" encoding="utf-8"?><svg viewBox="0 0 512 512" xmlns="http://www.w3.org/2000/svg" xmlns:xlink="http://www.w3.org/1999/xlink"><style>:root>svg{display:none}:root>svg:target{display:block}</style><svg class="a@class" viewBox="0 0 101.03 77.43" id="css--check" xmlns="http://www.w3.org/2000/svg"><path d="M99.2 10.69l-8.86-8.87a6.31 6.31 0 00-8.87 0L38.71 44.65 19.55 25.42a6 6 0 00-4.43-1.83 6 6 0 00-4.43 1.83l-8.87 8.86a6.31 6.31 0 000 8.87l23.6 23.59 8.86 8.87a6.31 6.31 0 008.87 0L52 66.74l47.2-47.19a6 6 0 001.8-4.43 6 6 0 00-1.83-4.43z" fill="#fbaa2a"/></svg><svg class="b@@class" viewBox="0 0 512 512" id="include--blueprint" xmlns="http://www.w3.org/2000/svg"><path d="M76 360h151a15 15 0 0012.68-23l-151-239C80.67 85.31 61 91 61 106v239a15 15 0 0015 15zm15-202.18L199.78 330H91zM146 120h34v66a15 15 0 0030 0v-66h90v62h-45a15 15 0 00-15 15v59a15 15 0 0015 15h45v60h-14a15 15 0 000 30h29a15 15 0 0015-15v-90a15 15 0 00-15-15h-45v-29h45a15 15 0 0015-15v-92a15 15 0 00-15-15H146a15 15 0 000 30zm364.43-50.69L480 8.31a15 15 0 00-26.92.14l-29.61 61A14.87 14.87 0 00422 76v285a15 15 0 0015 15h60a15 15 0 0015-15V76a15.08 15.08 0 00-1.57-6.69zM466.79 49L482 79.53V270h-30V79.45zM452 346v-46h30v46z" fill="currentColor"/><path d="M391 391V15a15 15 0 00-15-15H15A15 15 0 000 15c0 321.54 0 438.33.08 439.51A60.57 60.57 0 0060.5 512h330a60.5 60.5 0 00.5-121zM30 451.5V30h331v361H60.5a15 15 0 000 30A30.5 30.5 0 1130 451.5zM390.5 482H112.72a60.27 60.27 0 000-61H390.5a30.5 30.5 0 010 61z" fill="currentColor"/></svg><svg class="c@@class" viewBox="0 0 390 512" id="include--calc" xmlns="http://www.w3.org/2000/svg"><path d="M45 512h300a45.05 45.05 0 0045-45V45a45.05 45.05 0 00-45-45H45A45.05 45.05 0 000 45v422a45.05 45.05 0 0045 45zm315-360v150H210V152zM180 302H30V152h150zM30 467V332h150v150H45a15 15 0 01-15-15zm315 15H210V332h150v135a15 15 0 01-15 15zM45 30h300a15 15 0 0115 15v77H30V45a15 15 0 0115-15z" fill="currentColor"/><path d="M75 242h15v15a15 15 0 0030 0v-15h15a15 15 0 000-30h-15v-15a15 15 0 00-30 0v15H75a15 15 0 000 30zm51.21 165l10.61-10.61a15 15 0 10-21.21-21.21L105 385.79l-10.61-10.61a15 15 0 10-21.21 21.21L83.79 407l-10.61 10.61a15 15 0 1021.21 21.21L105 428.21l10.61 10.61a15 15 0 1021.21-21.21zM255 242h60a15 15 0 000-30h-60a15 15 0 000 30zm60 180h-60a15 15 0 000 30h60a15 15 0 000-30zm0-60h-60a15 15 0 000 30h60a15 15 0 000-30zM75 91h30a15 15 0 000-30H75a15 15 0 000 30z" fill="currentColor"/></svg><svg class="d@class" viewBox="0 0 101.03 77.43" id="include--check" xmlns="http://www.w3.org/2000/svg"><path d="M99.2 10.69l-8.86-8.87a6.31 6.31 0 00-8.87 0L38.71 44.65 19.55 25.42a6 6 0 00-4.43-1.83 6 6 0 00-4.43 1.83l-8.87 8.86a6.31 6.31 0 000 8.87l23.6 23.59 8.86 8.87a6.31 6.31 0 008.87 0L52 66.74l47.2-47.19a6 6 0 001.8-4.43 6 6 0 00-1.83-4.43z" fill="currentColor"/></svg><svg fill="none" viewBox="0 0 98 86" id="include--logo_no_text" xmlns="http://www.w3.org/2000/svg"><path fill-rule="evenodd" clip-rule="evenodd" d="M.752 85.855h7.779V24.588L.752 22.876v62.979zm10.452 0h9.575V18.67l-9.575-2.418v69.602m12.9.001h12.068V11.648L24.104 8.076v77.779z" fill="#F5E019"/><path fill-rule="evenodd" clip-rule="evenodd" d="M51.912 72.639V17.624a55004.14 55004.14 0 0020.656 6.001l17.308 5.028v46.123c-5.448-.307-11.215-.633-17.308-.975-6.47-.362-13.343-.749-20.656-1.162zm45.324-52.53a56870.076 56870.076 0 00-24.675-8.558L51.912 4.385c-3.69-1.278-7.485-2.597-11.424-3.96v85.43h56.748V20.11" fill="url(#epaint0_linear_2_62)"/><defs><linearGradient id="epaint0_linear_2_62" x1="40.488" y1="43.14" x2="97.235" y2="43.14" gradientUnits="userSpaceOnUse"><stop stop-color="#F5E019"/><stop offset="1" stop-color="#F46E19"/></linearGradient></defs></svg><svg class="f@@svgClass" viewBox="0 0 248 43" fill="none" id="include--logo_text_horisontal" xmlns="http://www.w3.org/2000/svg"><path d="M68.216 19.417h-4.157v7.079h4.157c2.647 0 4.879-.721 4.879-3.539 0-2.852-2.232-3.54-4.879-3.54zm-.241-4.534c5.808 0 10.377 1.854 10.377 8.074 0 6.219-4.57 8.075-10.377 8.075h-3.916v7.903h-5.155V14.883h9.07m19.963 24.052l-9.345-24.052h5.565l6.427 18.005 6.459-18.005h5.566l-9.38 24.052h-5.292m38.552-24.052v24.052h-5.154v-9.69h-10.79v9.69h-5.153V14.883h5.153v9.689h10.79v-9.69h5.154z" fill="#F47119"/><path d="M165.143 14.883v24.052h-2.887v-18.59l-8.623 12.92h-1.788l-8.624-12.92v18.59h-2.886V14.883h2.473l9.932 14.844 9.929-14.844h2.474m10.444 22.093c2.097 0 4.193-.859 5.636-2.405v-3.024c-1.168-.24-2.852-.48-4.192-.48-2.406 0-5.016.721-5.016 3.126 0 1.924 1.752 2.783 3.572 2.783zm9.657-.205c.411 0 .857-.104 1.271-.242v2.234a6.1 6.1 0 01-2.063.378c-1.34 0-2.541-.55-3.024-1.993-1.648 1.375-3.744 2.2-6.425 2.2-2.919 0-5.807-1.547-5.807-5.017 0-4.262 3.917-5.566 7.456-5.566 1.444 0 3.197.206 4.571.515v-.585c0-2.474-1.684-4.123-4.707-4.123-2.543 0-4.571.619-6.015 1.237v-2.68c1.306-.446 3.575-1.1 6.29-1.1 4.398 0 7.181 2.406 7.181 7.01v6.46c0 .997.549 1.272 1.272 1.272m9.344-14.741c2.2 0 4.295.583 5.841 1.409v2.61c-1.374-.893-3.677-1.546-5.67-1.546-1.786 0-3.675.585-3.675 2.2 0 3.573 10.479 2.062 10.479 8.006 0 3.435-3.23 4.639-6.804 4.639-2.336 0-4.843-.62-6.391-1.616v-2.68c1.684 1.133 4.193 1.752 6.255 1.752 2.336 0 4.19-.379 4.19-2.027 0-3.47-10.513-2.096-10.513-8.006 0-3.402 3.195-4.742 6.288-4.742m14.499-5.394v5.808h6.598v2.541h-6.598v8.521c0 2.508 1.134 3.266 3.54 3.266 1.305 0 2.542-.31 3.642-.758v2.543c-1.238.447-2.85.756-4.433.756-3.196 0-5.463-1.717-5.463-5.325v-9.003h-3.092v-2.541h3.092V17.32l2.714-.686zm17.524 7.937c-2.818 0-5.43 1.684-5.636 4.913h10.686c.242-1.752-.858-4.913-5.05-4.913zm-.172-2.543c6.357 0 8.693 5.188 7.661 9.862h-13.125c.342 3.47 3.47 4.913 6.804 4.913 2.028 0 4.02-.55 5.428-1.34v2.68c-1.511.79-3.676 1.204-5.842 1.204-4.878 0-9.14-2.784-9.14-8.66 0-5.772 4.296-8.659 8.214-8.659zm21.336.07v2.749c-3.231-.379-5.84 1.168-6.838 3.813v10.274h-2.748V22.443h2.474v2.92c1.306-2.166 4.226-3.506 7.112-3.264" fill="currentColor"/><path fill-rule="evenodd" clip-rule="evenodd" d="M.212 42.804h3.875V12.279l-3.875-.854v31.379m5.207 0h4.772V9.331L5.419 8.127v34.677m6.429 0h6.012V5.832l-6.012-1.78v38.752" fill="#F5E019"/><path fill-rule="evenodd" clip-rule="evenodd" d="M25.701 36.22V8.809l10.292 2.99 8.624 2.506v22.979l-8.624-.485-10.292-.579zm22.583-26.172c-1.19-.415-2.412-.839-3.667-1.273L35.99 5.783c-3.218-1.116-6.642-2.306-10.288-3.57L20.011.24v42.564h28.273V10.048z" fill="url(#fpaint0_linear_2_64)"/><defs><linearGradient id="fpaint0_linear_2_64" x1="20.011" y1="21.521" x2="48.284" y2="21.521" gradientUnits="userSpaceOnUse"><stop stop-color="#F5E019"/><stop offset="1" stop-color="#F46E19"/></linearGradient></defs></svg><svg fill="none" viewBox="0 0 190 134" id="include--logo_text_vertical" xmlns="http://www.w3.org/2000/svg"><path d="M9.87 113.98H5.711v7.079h4.157c2.647 0 4.88-.722 4.88-3.539 0-2.852-2.233-3.54-4.88-3.54zm-.24-4.536c5.806 0 10.377 1.856 10.377 8.076 0 6.219-4.571 8.073-10.378 8.073H5.712v7.904H.559v-24.053h9.07m19.963 24.053l-9.345-24.053h5.565l6.427 18.005 6.458-18.005h5.567l-9.38 24.053h-5.292m38.551-24.053v24.053h-5.154v-9.69H52.2v9.69h-5.155v-24.053H52.2v9.691h10.79v-9.691h5.153z" fill="#F47119"/><path d="M106.797 109.444v24.053h-2.886v-18.589l-8.624 12.92H93.5l-8.625-12.92v18.589h-2.886v-24.053h2.475l9.93 14.845 9.929-14.845h2.474m10.446 22.095c2.094 0 4.19-.859 5.633-2.406v-3.024c-1.168-.241-2.851-.48-4.191-.48-2.405 0-5.017.722-5.017 3.126 0 1.925 1.752 2.784 3.575 2.784zm9.654-.207c.411 0 .858-.103 1.271-.24v2.233a6.08 6.08 0 01-2.061.378c-1.34 0-2.543-.55-3.023-1.992-1.651 1.373-3.747 2.2-6.427 2.2-2.92 0-5.806-1.548-5.806-5.018 0-4.261 3.916-5.566 7.456-5.566 1.444 0 3.196.205 4.569.516v-.586c0-2.473-1.683-4.122-4.707-4.122-2.542 0-4.569.617-6.013 1.236v-2.679c1.307-.447 3.573-1.101 6.288-1.101 4.399 0 7.181 2.406 7.181 7.01v6.46c0 .996.551 1.271 1.272 1.271m9.346-14.741c2.198 0 4.294.585 5.841 1.409v2.612c-1.376-.893-3.677-1.547-5.669-1.547-1.787 0-3.678.584-3.678 2.199 0 3.573 10.48 2.063 10.48 8.007 0 3.436-3.23 4.64-6.802 4.64-2.336 0-4.846-.62-6.391-1.616v-2.68c1.683 1.133 4.191 1.75 6.252 1.75 2.337 0 4.193-.377 4.193-2.025 0-3.472-10.514-2.096-10.514-8.007 0-3.401 3.194-4.742 6.288-4.742m14.5-5.395v5.808h6.596v2.543h-6.596v8.521c0 2.508 1.132 3.264 3.538 3.264 1.304 0 2.543-.308 3.642-.756v2.543c-1.236.446-2.851.754-4.434.754-3.193 0-5.461-1.716-5.461-5.325v-9.001h-3.093v-2.543h3.093v-5.12l2.715-.688m17.521 7.939c-2.817 0-5.428 1.682-5.635 4.913h10.686c.241-1.752-.858-4.913-5.051-4.913zm-.172-2.544c6.357 0 8.693 5.189 7.663 9.862h-13.126c.344 3.471 3.471 4.912 6.803 4.912 2.028 0 4.02-.548 5.431-1.338v2.68c-1.512.79-3.678 1.204-5.843 1.204-4.88 0-9.14-2.784-9.14-8.66 0-5.774 4.296-8.66 8.212-8.66m21.336.069v2.751c-3.229-.38-5.84 1.168-6.837 3.812v10.274h-2.747v-16.493h2.472v2.92c1.307-2.164 4.227-3.505 7.112-3.264z" fill="currentColor"/><path fill-rule="evenodd" clip-rule="evenodd" d="M46.752 85.855h7.779V24.588l-7.779-1.712v62.979zm10.452 0h9.575V18.67l-9.575-2.418v69.602m12.9.001h12.068V11.648L70.104 8.076v77.779z" fill="#F5E019"/><path fill-rule="evenodd" clip-rule="evenodd" d="M97.912 72.639V17.624c7.313 2.127 14.187 4.123 20.656 6.001l17.308 5.028v46.123c-5.448-.307-11.215-.633-17.308-.975-6.469-.362-13.343-.749-20.656-1.162zm45.324-52.53a134253.48 134253.48 0 00-24.675-8.559c-6.462-2.24-13.336-4.627-20.649-7.165-3.69-1.278-7.485-2.597-11.424-3.96v85.43h56.748V20.11" fill="url(#gpaint0_linear_2_63)"/><defs><linearGradient id="gpaint0_linear_2_63" x1="86.488" y1="43.14" x2="143.235" y2="43.14" gradientUnits="userSpaceOnUse"><stop stop-color="#F5E019"/><stop offset="1" stop-color="#F46E19"/></linearGradient></defs></svg><svg class="h@@class" viewBox="0 0 12 12" id="include--rate-star" xmlns="http://www.w3.org/2000/svg"><path d="M6.212.69L7.95 4.005l3.536.714-2.461 2.763.447 3.76-3.26-1.61-3.26 1.61.447-3.76L.94 4.719l3.535-.714L6.212.69" fill="#8cc53f"/><path d="M6.212.69L7.95 4.005l3.536.714-2.461 2.763.447 3.76-3.26-1.61-3.26 1.61.447-3.76L.94 4.719l3.535-.714L6.212.69" fill="#d09732"/></svg><svg class="i@@class" viewBox="0 0 24 22" id="include--tg" xmlns="http://www.w3.org/2000/svg"><path d="M19.32 22a.9.9 0 01-.53-.17l-6-4.19L9.52 20a.92.92 0 01-.88.13 1 1 0 01-.6-.67l-1.62-6.29L.61 10.9a1 1 0 010-1.82l22.08-9A.84.84 0 0123 0h.12a.91.91 0 01.61.28A1 1 0 0124 .9v.27l-3.73 20a1 1 0 01-.56.72.94.94 0 01-.39.11zm-6-6.35l5.38 3.74L21.56 3.8 11.09 14.12l2.17 1.52zm-4.47-.83l.72 2.8 1.55-1.15-2-1.41a.91.91 0 01-.31-.24zM3.57 10l4 1.56a.94.94 0 01.58.66l.51 2a1 1 0 01.28-.59l10-9.85z" fill="currentColor" fill-rule="evenodd"/></svg><svg class="j@@class" viewBox="0 0 25.01 26.04" id="include--viber" xmlns="http://www.w3.org/2000/svg"><path d="M22.47 2.91c-2.08-2-5.44-3-10-2.91S4.83.89 2.83 2.52 0 6.38 0 9.74v3.43c0 4 2.15 8.34 6.25 9a.87.87 0 001-.72.85.85 0 00-.71-1c-3.11-.5-4.79-4.13-4.79-7.3V9.74c0-4.82 1.8-7.84 10.78-8 4.07-.09 7 .73 8.73 2.41a7.34 7.34 0 012 5.6v3.43c0 5.2-2.35 7.49-8.39 8.16h-4.28a.86.86 0 00-.62.25l-3 3A.85.85 0 007 25.8a.86.86 0 001.21 0L11 23.06h4c3.46-.38 5.83-1.27 7.45-2.81S25 16.33 25 13.18V9.75a9.14 9.14 0 00-2.53-6.84zM13 5.62a5.3 5.3 0 013.71 1.52 5.16 5.16 0 011.53 3.67.86.86 0 00.87.86.85.85 0 00.87-.85 6.87 6.87 0 00-2-4.89A7.07 7.07 0 0013 3.9a.86.86 0 100 1.72zm0 3a2.18 2.18 0 012.19 2.16.87.87 0 001.74 0A3.92 3.92 0 0013 6.93a.87.87 0 00-.87.85.85.85 0 00.84.87zm-3.9 1.47a.87.87 0 00-.23 1.2.87.87 0 001.2.23 1.9 1.9 0 001-1.69 4.78 4.78 0 00-1-2 4.44 4.44 0 00-1.64-1.59 1.87 1.87 0 00-1.32 0 3.11 3.11 0 00-1.95 1.62 2.94 2.94 0 000 2.43 16.22 16.22 0 003.48 5.29A16.44 16.44 0 0014 19a3.59 3.59 0 001.3.26 2.68 2.68 0 001.14-.26 3.15 3.15 0 001.65-1.94 1.9 1.9 0 000-1.29 4.3 4.3 0 00-1.6-1.65 4.74 4.74 0 00-2.06-1 1.9 1.9 0 00-1.71 1 .85.85 0 00.21 1.18.89.89 0 001.21-.22 1.37 1.37 0 01.17-.23 7 7 0 012.13 1.56.2.2 0 010 .13 1.54 1.54 0 01-.72.92 1.4 1.4 0 01-1.08 0 14.6 14.6 0 01-4.76-3.06 14.48 14.48 0 01-3.1-4.73 1.35 1.35 0 010-1.06 1.5 1.5 0 01.93-.71.17.17 0 01.14 0A6.92 6.92 0 019.37 10a1.84 1.84 0 01-.22.17z" fill="currentColor" fill-rule="evenodd"/></svg><svg class="k@@class" viewBox="0 0 27 26.91" id="include--whatsapp" xmlns="http://www.w3.org/2000/svg"><path d="M27 13.06a13.29 13.29 0 01-13.42 13.15 13.46 13.46 0 01-6.24-1.63L0 26.91l2.39-7.06a13.13 13.13 0 01-1.9-6.79 13.26 13.26 0 0126.51 0zM13.75 2a11 11 0 00-9 17.54l-1.39 4.1 4.28-1.36A11.08 11.08 0 1020 3.9 10.94 10.94 0 0013.75 2zm6.69 14.08a1.73 1.73 0 00-.62-.38c-.33-.15-1.93-.94-2.22-1a.5.5 0 00-.7.1v.06c-.21.32-.83 1.05-1 1.26a.51.51 0 01-.7.08 8.91 8.91 0 01-2.62-1.6 9.43 9.43 0 01-1.8-2.23.47.47 0 01.13-.66c.14-.14.32-.37.49-.56a2.48 2.48 0 00.32-.54.56.56 0 000-.56c-.08-.17-.73-1.75-1-2.4s-.54-.53-.73-.53h-.62a1.17 1.17 0 00-.87.4 3.58 3.58 0 00-1.13 2.69 6.19 6.19 0 001.32 3.33c.17.22 2.25 3.58 5.55 4.87s3.3.86 3.9.81a3.3 3.3 0 002.2-1.54 2.68 2.68 0 00.18-1.53z" fill="currentColor" fill-rule="evenodd"/></svg></svg>