<svg xmlns="http://www.w3.org/2000/svg" class="@@class" viewBox="0 0 512 512"><path d="M76,360H227a15,15,0,0,0,12.68-23L88.68,98C80.67,85.31,61,91,61,106V345A15,15,0,0,0,76,360ZM91,157.82,199.78,330H91Z" fill="currentColor"/><path d="M146,120h34v66a15,15,0,0,0,30,0V120h90v62H255a15,15,0,0,0-15,15v59a15,15,0,0,0,15,15h45v60H286a15,15,0,0,0,0,30h29a15,15,0,0,0,15-15V256a15,15,0,0,0-15-15H270V212h45a15,15,0,0,0,15-15V105a15,15,0,0,0-15-15H146a15,15,0,0,0,0,30Z" fill="currentColor"/><path d="M510.43,69.31,480,8.31a15,15,0,0,0-26.92.14l-29.61,61A14.87,14.87,0,0,0,422,76V361a15,15,0,0,0,15,15h60a15,15,0,0,0,15-15V76A15.08,15.08,0,0,0,510.43,69.31ZM466.79,49,482,79.53V270H452V79.45ZM452,346V300h30v46Z" fill="currentColor"/><path d="M391,391V15A15,15,0,0,0,376,0H15A15,15,0,0,0,0,15C0,336.54,0,453.33.08,454.51A60.57,60.57,0,0,0,60.5,512h330a60.5,60.5,0,0,0,.5-121ZM30,451.5V30H361V391H60.5a15,15,0,0,0,0,30A30.5,30.5,0,1,1,30,451.5ZM390.5,482H112.72a60.27,60.27,0,0,0,0-61H390.5a30.5,30.5,0,0,1,0,61Z" fill="currentColor"/></svg>