<svg xmlns="http://www.w3.org/2000/svg" class="@@class" viewBox="0 0 390 512"><path d="M45,512H345a45.05,45.05,0,0,0,45-45V45A45.05,45.05,0,0,0,345,0H45A45.05,45.05,0,0,0,0,45V467A45.05,45.05,0,0,0,45,512ZM360,152V302H210V152ZM180,302H30V152H180ZM30,467V332H180V482H45A15,15,0,0,1,30,467Zm315,15H210V332H360V467A15,15,0,0,1,345,482ZM45,30H345a15,15,0,0,1,15,15v77H30V45A15,15,0,0,1,45,30Z" fill="currentColor"/><path d="M75,242H90v15a15,15,0,0,0,30,0V242h15a15,15,0,0,0,0-30H120V197a15,15,0,0,0-30,0v15H75a15,15,0,0,0,0,30Z" fill="currentColor"/><path d="M126.21,407l10.61-10.61a15,15,0,1,0-21.21-21.21L105,385.79,94.39,375.18a15,15,0,1,0-21.21,21.21L83.79,407,73.18,417.61a15,15,0,1,0,21.21,21.21L105,428.21l10.61,10.61a15,15,0,1,0,21.21-21.21Z" fill="currentColor"/><path d="M255,242h60a15,15,0,0,0,0-30H255a15,15,0,0,0,0,30Z" fill="currentColor"/><path d="M315,422H255a15,15,0,0,0,0,30h60a15,15,0,0,0,0-30Z" fill="currentColor"/><path d="M315,362H255a15,15,0,0,0,0,30h60a15,15,0,0,0,0-30Z" fill="currentColor"/><path d="M75,91h30a15,15,0,0,0,0-30H75a15,15,0,0,0,0,30Z" fill="currentColor"/></svg>