<svg width="190" height="134" viewBox="0 0 190 134" fill="none" xmlns="http://www.w3.org/2000/svg">
<path d="M9.86933 113.98H5.71201V121.059H9.86933C12.516 121.059 14.7493 120.337 14.7493 117.52C14.7493 114.668 12.516 113.98 9.86933 113.98ZM9.62932 109.444C15.436 109.444 20.0067 111.3 20.0067 117.52C20.0067 123.739 15.436 125.593 9.62932 125.593H5.71201V133.497H0.558655V109.444H9.62932" fill="#F47119"/>
<path d="M29.592 133.497L20.2466 109.444H25.812L32.2386 127.449L38.6973 109.444H44.264L34.8839 133.497H29.592" fill="#F47119"/>
<path d="M68.1426 109.444V133.497H62.9893V123.807H52.2V133.497H47.0453V109.444H52.2V119.135H62.9893V109.444H68.1426Z" fill="#F47119"/>
<path d="M106.797 109.444V133.497H103.911V114.908L95.2867 127.828H93.5L84.8747 114.908V133.497H81.9893V109.444H84.464L94.3934 124.289L104.323 109.444H106.797" fill="currentColor"/>
<path d="M117.243 131.539C119.337 131.539 121.433 130.68 122.876 129.133V126.109C121.708 125.868 120.025 125.629 118.685 125.629C116.28 125.629 113.668 126.351 113.668 128.755C113.668 130.68 115.42 131.539 117.243 131.539V131.539ZM126.897 131.332C127.308 131.332 127.755 131.229 128.168 131.092V133.325C127.516 133.565 126.795 133.703 126.107 133.703C124.767 133.703 123.564 133.153 123.084 131.711C121.433 133.084 119.337 133.911 116.657 133.911C113.737 133.911 110.851 132.363 110.851 128.893C110.851 124.632 114.767 123.327 118.307 123.327C119.751 123.327 121.503 123.532 122.876 123.843V123.257C122.876 120.784 121.193 119.135 118.169 119.135C115.627 119.135 113.6 119.752 112.156 120.371V117.692C113.463 117.245 115.729 116.591 118.444 116.591C122.843 116.591 125.625 118.997 125.625 123.601V130.061C125.625 131.057 126.176 131.332 126.897 131.332" fill="currentColor"/>
<path d="M136.243 116.591C138.441 116.591 140.537 117.176 142.084 118V120.612C140.708 119.719 138.407 119.065 136.415 119.065C134.628 119.065 132.737 119.649 132.737 121.264C132.737 124.837 143.217 123.327 143.217 129.271C143.217 132.707 139.987 133.911 136.415 133.911C134.079 133.911 131.569 133.291 130.024 132.295V129.615C131.707 130.748 134.215 131.365 136.276 131.365C138.613 131.365 140.469 130.988 140.469 129.34C140.469 125.868 129.955 127.244 129.955 121.333C129.955 117.932 133.149 116.591 136.243 116.591" fill="currentColor"/>
<path d="M150.743 111.196V117.004H157.339V119.547H150.743V128.068C150.743 130.576 151.875 131.332 154.281 131.332C155.585 131.332 156.824 131.024 157.923 130.576V133.119C156.687 133.565 155.072 133.873 153.489 133.873C150.296 133.873 148.028 132.157 148.028 128.548V119.547H144.935V117.004H148.028V111.884L150.743 111.196" fill="currentColor"/>
<path d="M168.264 119.135C165.447 119.135 162.836 120.817 162.629 124.048H173.315C173.556 122.296 172.457 119.135 168.264 119.135ZM168.092 116.591C174.449 116.591 176.785 121.78 175.755 126.453H162.629C162.973 129.924 166.1 131.365 169.432 131.365C171.46 131.365 173.452 130.817 174.863 130.027V132.707C173.351 133.497 171.185 133.911 169.02 133.911C164.14 133.911 159.88 131.127 159.88 125.251C159.88 119.477 164.176 116.591 168.092 116.591" fill="currentColor"/>
<path d="M189.428 116.66V119.411C186.199 119.031 183.588 120.579 182.591 123.223V133.497H179.844V117.004H182.316V119.924C183.623 117.76 186.543 116.419 189.428 116.66Z" fill="currentColor"/>

<path fill-rule="evenodd" clip-rule="evenodd" d="M46.752 85.8547H54.5307V24.588L46.752 22.876V54.3773V85.8547Z" fill="#F5E019"/>
<path fill-rule="evenodd" clip-rule="evenodd" d="M57.204 85.8547H66.7787V18.6707L57.204 16.2533V51.068V85.8547" fill="#F5E019"/>
<path fill-rule="evenodd" clip-rule="evenodd" d="M70.104 85.8547C71.968 85.8547 73.8827 85.8547 75.86 85.8547C77.896 85.8547 80.004 85.8547 82.172 85.8547C82.172 71.6307 82.172 57.388 82.172 43.156C82.172 28.924 82.172 25.8987 82.172 11.648L70.104 8.07602C70.104 21.0494 70.104 34.024 70.104 46.98C70.104 59.9387 70.104 72.904 70.104 85.8547Z" fill="#F5E019"/>
<path fill-rule="evenodd" clip-rule="evenodd" d="M97.912 72.6387C97.912 63.4747 97.912 54.3027 97.912 45.136C97.912 35.9707 97.912 26.7973 97.912 17.624C105.225 19.7507 112.099 21.7467 118.568 23.6253C124.661 25.3947 130.428 27.0707 135.876 28.6533C135.876 36.344 135.876 44.0333 135.876 51.7187C135.876 59.4013 135.876 67.092 135.876 74.776C130.428 74.4693 124.661 74.1427 118.568 73.8013C112.099 73.4387 105.225 73.052 97.912 72.6387ZM143.236 20.1093C140.848 19.2787 138.396 18.428 135.876 17.5547C130.428 15.6653 124.661 13.6653 118.561 11.5507C112.099 9.30933 105.225 6.92266 97.912 4.38533C94.2226 3.10666 90.4266 1.788 86.488 0.425335C86.488 5.06267 86.488 9.68535 86.488 14.3067C86.488 23.9253 86.488 33.5453 86.488 43.156C86.488 52.7667 86.488 62.3867 86.488 71.9973C86.488 76.6187 86.488 81.24 86.488 85.8547C90.4266 85.8547 94.2226 85.8547 97.912 85.8547C105.225 85.8547 112.099 85.8547 118.568 85.8547C124.663 85.8547 130.428 85.8547 135.876 85.8547C138.396 85.8547 140.848 85.8547 143.236 85.8547C143.236 82.304 143.236 78.7467 143.236 75.1907C143.236 67.7933 143.236 60.3907 143.236 52.9947C143.236 45.5987 143.236 38.1947 143.236 30.7933C143.236 27.236 143.236 23.6787 143.236 20.1093" fill="url(#paint0_linear_2_63)"/>
<defs>
<linearGradient id="paint0_linear_2_63" x1="86.488" y1="43.14" x2="143.235" y2="43.14" gradientUnits="userSpaceOnUse">
<stop stop-color="#F5E019"/>
<stop offset="1" stop-color="#F46E19"/>
</linearGradient>
</defs>
</svg>
