<svg width="248" height="43" viewBox="0 0 248 43" fill="none" xmlns="http://www.w3.org/2000/svg">
<path d="M68.216 19.4173H64.0586V26.496H68.216C70.8627 26.496 73.0946 25.7747 73.0946 22.9573C73.0946 20.1053 70.8627 19.4173 68.216 19.4173ZM67.9747 14.8827C73.7827 14.8827 78.352 16.7373 78.352 22.9573C78.352 29.176 73.7827 31.032 67.9747 31.032H64.0586V38.9347H58.904V14.8827H67.9747" fill="#F47119"/>
<path d="M87.9373 38.9347L78.592 14.8827H84.1573L90.584 32.888L97.0427 14.8827H102.609L93.2293 38.9347H87.9373" fill="#F47119"/>
<path d="M126.489 14.8827V38.9347H121.335V29.2453H110.545V38.9347H105.392V14.8827H110.545V24.572H121.335V14.8827H126.489Z" fill="#F47119"/>
<path d="M165.143 14.8827V38.9347H162.256V20.3453L153.633 33.2653H151.845L143.221 20.3453V38.9347H140.335V14.8827H142.808L152.74 29.7267L162.669 14.8827H165.143" fill="#1F2021"/>
<path d="M175.587 36.976C177.684 36.976 179.78 36.1173 181.223 34.5707V31.5467C180.055 31.3067 178.371 31.0667 177.031 31.0667C174.625 31.0667 172.015 31.788 172.015 34.1933C172.015 36.1173 173.767 36.976 175.587 36.976V36.976ZM185.244 36.7707C185.655 36.7707 186.101 36.6667 186.515 36.5293V38.7627C185.861 39.0027 185.14 39.1413 184.452 39.1413C183.112 39.1413 181.911 38.5907 181.428 37.148C179.78 38.5227 177.684 39.348 175.003 39.348C172.084 39.348 169.196 37.8013 169.196 34.3307C169.196 30.0693 173.113 28.7653 176.652 28.7653C178.096 28.7653 179.849 28.9707 181.223 29.28V28.6947C181.223 26.2213 179.539 24.572 176.516 24.572C173.973 24.572 171.945 25.1907 170.501 25.8094V23.1293C171.807 22.6827 174.076 22.0293 176.791 22.0293C181.189 22.0293 183.972 24.4347 183.972 29.0387V35.4987C183.972 36.496 184.521 36.7707 185.244 36.7707" fill="#1F2021"/>
<path d="M194.588 22.0293C196.788 22.0293 198.883 22.6133 200.429 23.4387V26.0494C199.055 25.156 196.752 24.5027 194.759 24.5027C192.973 24.5027 191.084 25.088 191.084 26.7027C191.084 30.276 201.563 28.7654 201.563 34.7094C201.563 38.144 198.333 39.348 194.759 39.348C192.423 39.348 189.916 38.728 188.368 37.732V35.052C190.052 36.1853 192.561 36.804 194.623 36.804C196.959 36.804 198.813 36.4254 198.813 34.7774C198.813 31.3067 188.3 32.6813 188.3 26.7707C188.3 23.3693 191.495 22.0293 194.588 22.0293" fill="#1F2021"/>
<path d="M209.087 16.6347V22.4427H215.685V24.984H209.087V33.5053C209.087 36.0133 210.221 36.7707 212.627 36.7707C213.932 36.7707 215.169 36.4613 216.269 36.0133V38.556C215.031 39.0027 213.419 39.312 211.836 39.312C208.64 39.312 206.373 37.5947 206.373 33.9867V24.984H203.281V22.4427H206.373V17.3213L209.087 16.6347Z" fill="#1F2021"/>
<path d="M226.611 24.572C223.793 24.572 221.181 26.256 220.975 29.4853H231.661C231.903 27.7333 230.803 24.572 226.611 24.572V24.572ZM226.439 22.0293C232.796 22.0293 235.132 27.2173 234.1 31.8907H220.975C221.317 35.3613 224.445 36.804 227.779 36.804C229.807 36.804 231.799 36.2547 233.207 35.464V38.144C231.696 38.9347 229.531 39.348 227.365 39.348C222.487 39.348 218.225 36.564 218.225 30.688C218.225 24.916 222.521 22.0293 226.439 22.0293Z" fill="#1F2021"/>
<path d="M247.775 22.0987V24.848C244.544 24.4693 241.935 26.016 240.937 28.6613V38.9347H238.189V22.4427H240.663V25.3627C241.969 23.1973 244.889 21.8573 247.775 22.0987" fill="#1F2021"/>
<path fill-rule="evenodd" clip-rule="evenodd" d="M0.211975 42.804H4.08662V12.2787L0.211975 11.4253V27.1213V42.804" fill="#F5E019"/>
<path fill-rule="evenodd" clip-rule="evenodd" d="M5.41864 42.804H10.1906V9.33068L5.41864 8.12667V25.472V42.804" fill="#F5E019"/>
<path fill-rule="evenodd" clip-rule="evenodd" d="M11.848 42.804C12.7747 42.804 13.7294 42.804 14.7147 42.804C15.7294 42.804 16.78 42.804 17.86 42.804C17.86 35.7173 17.86 28.6213 17.86 21.5293C17.86 14.44 17.86 12.932 17.86 5.83201L11.848 4.052C11.848 10.516 11.848 16.98 11.848 23.436C11.848 29.892 11.848 36.352 11.848 42.804" fill="#F5E019"/>
<path fill-rule="evenodd" clip-rule="evenodd" d="M25.7013 36.22C25.7013 31.6533 25.7013 27.084 25.7013 22.516C25.7013 17.9494 25.7013 13.38 25.7013 8.80936C29.3466 9.86802 32.7706 10.8627 35.9933 11.7987C39.0293 12.6813 41.9026 13.516 44.6173 14.3054C44.6173 18.136 44.6173 21.968 44.6173 25.796C44.6173 29.624 44.6173 33.456 44.6173 37.284C41.9026 37.132 39.0293 36.9693 35.9933 36.7987C32.7706 36.6173 29.3466 36.4253 25.7013 36.22V36.22ZM48.284 10.048C47.0933 9.63336 45.872 9.20936 44.6173 8.77469C41.9026 7.83336 39.0293 6.83736 35.9893 5.7827C32.7706 4.6667 29.3466 3.47736 25.7013 2.21336C23.864 1.57603 21.9733 0.918688 20.0107 0.240021C20.0107 2.55069 20.0107 4.85334 20.0107 7.156C20.0107 11.9493 20.0107 16.7413 20.0107 21.5293C20.0107 26.3187 20.0107 31.1107 20.0107 35.9C20.0107 38.2027 20.0107 40.504 20.0107 42.804C21.9733 42.804 23.864 42.804 25.7013 42.804C29.3466 42.804 32.7706 42.804 35.9933 42.804C39.0293 42.804 41.9026 42.804 44.6173 42.804C45.872 42.804 47.0933 42.804 48.284 42.804C48.284 41.0347 48.284 39.2627 48.284 37.4907C48.284 33.8053 48.284 30.1173 48.284 26.432C48.284 22.748 48.284 19.0587 48.284 15.3707C48.284 13.5987 48.284 11.8267 48.284 10.048Z" fill="url(#paint0_linear_2_64)"/>
<defs>
<linearGradient id="paint0_linear_2_64" x1="20.0107" y1="21.5214" x2="48.284" y2="21.5214" gradientUnits="userSpaceOnUse">
<stop stop-color="#F5E019"/>
<stop offset="1" stop-color="#F46E19"/>
</linearGradient>
</defs>
</svg>
