<svg xmlns="http://www.w3.org/2000/svg" class="@@class" viewBox="0 0 24 22"><path d="M19.32,22a.9.9,0,0,1-.53-.17l-6-4.19L9.52,20a.92.92,0,0,1-.88.13,1,1,0,0,1-.6-.67L6.42,13.17.61,10.9a1,1,0,0,1,0-1.82l22.08-9A.84.84,0,0,1,23,0h.12a.91.91,0,0,1,.61.28l0,0A1,1,0,0,1,24,.9v.16s0,.07,0,.11l-3.73,20a1,1,0,0,1-.56.72A.94.94,0,0,1,19.32,22Zm-6-6.35,5.38,3.74L21.56,3.8,11.09,14.12l2.17,1.52Zm-4.47-.83.72,2.8,1.55-1.15-2-1.41A.91.91,0,0,1,8.81,14.82ZM3.57,10l4,1.56a.94.94,0,0,1,.58.66l.51,2a1,1,0,0,1,.28-.59l10-9.85Z" fill="currentColor" fill-rule="evenodd"/></svg>