<svg xmlns="http://www.w3.org/2000/svg" class="@@class" viewBox="0 0 25.01 26.04"><path d="M22.47,2.91c-2.08-2-5.44-3-10-2.91S4.83.89,2.83,2.52,0,6.38,0,9.74v3.43c0,4,2.15,8.34,6.25,9a.87.87,0,0,0,1-.72.85.85,0,0,0-.71-1h0c-3.11-.5-4.79-4.13-4.79-7.3V9.74c0-4.82,1.8-7.84,10.78-8,4.07-.09,7,.73,8.73,2.41a7.34,7.34,0,0,1,2,5.6v3.43c0,5.2-2.35,7.49-8.39,8.16H10.59a.86.86,0,0,0-.62.25l-3,3A.85.85,0,0,0,7,25.8a.86.86,0,0,0,1.21,0L11,23.06H15c3.46-.38,5.83-1.27,7.45-2.81S25,16.33,25,13.18V9.75A9.14,9.14,0,0,0,22.47,2.91ZM13,5.62h0a5.3,5.3,0,0,1,3.71,1.52,5.16,5.16,0,0,1,1.53,3.67.86.86,0,0,0,.87.86h0a.85.85,0,0,0,.87-.85h0a6.87,6.87,0,0,0-2-4.89A7.07,7.07,0,0,0,13,3.9h0a.86.86,0,1,0,0,1.72Zm0,3a2.18,2.18,0,0,1,2.19,2.16.87.87,0,0,0,1.74,0A3.92,3.92,0,0,0,13,6.93h0a.87.87,0,0,0-.87.85.85.85,0,0,0,.84.87Zm-3.9,1.47a.87.87,0,0,0-.23,1.2h0a.87.87,0,0,0,1.2.23,1.9,1.9,0,0,0,1-1.69,4.78,4.78,0,0,0-1-2A4.44,4.44,0,0,0,8.43,6.24a1.87,1.87,0,0,0-1.32,0A3.11,3.11,0,0,0,5.16,7.86a2.94,2.94,0,0,0,0,2.43,16.22,16.22,0,0,0,3.48,5.29A16.44,16.44,0,0,0,14,19a3.59,3.59,0,0,0,1.3.26A2.68,2.68,0,0,0,16.44,19a3.15,3.15,0,0,0,1.65-1.94,1.9,1.9,0,0,0,0-1.29,4.3,4.3,0,0,0-1.6-1.65,4.74,4.74,0,0,0-2.06-1,1.9,1.9,0,0,0-1.71,1,.85.85,0,0,0,.21,1.18h0a.89.89,0,0,0,1.21-.22,1.37,1.37,0,0,1,.17-.23,7,7,0,0,1,2.13,1.56.2.2,0,0,1,0,.13,1.54,1.54,0,0,1-.72.92,1.4,1.4,0,0,1-1.08,0,14.6,14.6,0,0,1-4.76-3.06,14.48,14.48,0,0,1-3.1-4.73,1.35,1.35,0,0,1,0-1.06,1.5,1.5,0,0,1,.93-.71.17.17,0,0,1,.14,0A6.92,6.92,0,0,1,9.37,10a1.84,1.84,0,0,1-.22.17Z" fill="currentColor" fill-rule="evenodd"/></svg>