<svg xmlns="http://www.w3.org/2000/svg" class="@@class" viewBox="0 0 27 26.91"><path d="M27,13.06A13.29,13.29,0,0,1,13.58,26.21a13.46,13.46,0,0,1-6.24-1.63L0,26.91l2.39-7.06a13.13,13.13,0,0,1-1.9-6.79,13.26,13.26,0,0,1,26.51,0ZM13.75,2a11,11,0,0,0-9,17.54l-1.39,4.1,4.28-1.36A11.08,11.08,0,1,0,20,3.9,10.94,10.94,0,0,0,13.75,2Zm6.69,14.08a1.73,1.73,0,0,0-.62-.38c-.33-.15-1.93-.94-2.22-1a.5.5,0,0,0-.7.1l0,.06c-.21.32-.83,1.05-1,1.26a.51.51,0,0,1-.7.08,8.91,8.91,0,0,1-2.62-1.6,9.43,9.43,0,0,1-1.8-2.23.47.47,0,0,1,.13-.66h0c.14-.14.32-.37.49-.56a2.48,2.48,0,0,0,.32-.54.56.56,0,0,0,0-.56c-.08-.17-.73-1.75-1-2.4s-.54-.53-.73-.53-.4,0-.62,0a1.17,1.17,0,0,0-.87.4,3.58,3.58,0,0,0-1.13,2.69,6.19,6.19,0,0,0,1.32,3.33c.17.22,2.25,3.58,5.55,4.87s3.3.86,3.9.81a3.3,3.3,0,0,0,2.2-1.54,2.68,2.68,0,0,0,.18-1.53Z" fill="currentColor" fill-rule="evenodd"/></svg>