<svg width="98" height="86" viewBox="0 0 98 86" fill="none" xmlns="http://www.w3.org/2000/svg">
<path fill-rule="evenodd" clip-rule="evenodd" d="M0.751984 85.8547H8.53066V24.588L0.751984 22.876V54.3773V85.8547Z" fill="#F5E019"/>
<path fill-rule="evenodd" clip-rule="evenodd" d="M11.204 85.8547H20.7787V18.6707L11.204 16.2533V51.068V85.8547" fill="#F5E019"/>
<path fill-rule="evenodd" clip-rule="evenodd" d="M24.104 85.8547C25.968 85.8547 27.8827 85.8547 29.86 85.8547C31.896 85.8547 34.004 85.8547 36.172 85.8547C36.172 71.6307 36.172 57.388 36.172 43.156C36.172 28.924 36.172 25.8987 36.172 11.648L24.104 8.07602C24.104 21.0494 24.104 34.024 24.104 46.98C24.104 59.9387 24.104 72.904 24.104 85.8547Z" fill="#F5E019"/>
<path fill-rule="evenodd" clip-rule="evenodd" d="M51.912 72.6387C51.912 63.4747 51.912 54.3027 51.912 45.136C51.912 35.9707 51.912 26.7973 51.912 17.624C59.2253 19.7507 66.0986 21.7467 72.568 23.6253C78.6613 25.3947 84.428 27.0707 89.876 28.6533C89.876 36.344 89.876 44.0333 89.876 51.7187C89.876 59.4013 89.876 67.092 89.876 74.776C84.428 74.4693 78.6613 74.1427 72.568 73.8013C66.0986 73.4387 59.2253 73.052 51.912 72.6387ZM97.236 20.1093C94.848 19.2787 92.396 18.428 89.876 17.5547C84.428 15.6653 78.6613 13.6653 72.5613 11.5507C66.0987 9.30933 59.2253 6.92266 51.912 4.38533C48.2226 3.10666 44.4266 1.788 40.488 0.425335C40.488 5.06267 40.488 9.68535 40.488 14.3067C40.488 23.9253 40.488 33.5453 40.488 43.156C40.488 52.7667 40.488 62.3867 40.488 71.9973C40.488 76.6187 40.488 81.24 40.488 85.8547C44.4266 85.8547 48.2226 85.8547 51.912 85.8547C59.2253 85.8547 66.0986 85.8547 72.568 85.8547C78.6626 85.8547 84.428 85.8547 89.876 85.8547C92.396 85.8547 94.848 85.8547 97.236 85.8547C97.236 82.304 97.236 78.7467 97.236 75.1907C97.236 67.7933 97.236 60.3907 97.236 52.9947C97.236 45.5987 97.236 38.1947 97.236 30.7933C97.236 27.236 97.236 23.6787 97.236 20.1093" fill="url(#paint0_linear_2_62)"/>
<defs>
<linearGradient id="paint0_linear_2_62" x1="40.488" y1="43.14" x2="97.2348" y2="43.14" gradientUnits="userSpaceOnUse">
<stop stop-color="#F5E019"/>
<stop offset="1" stop-color="#F46E19"/>
</linearGradient>
</defs>
</svg>
